<svg xmlns="http://www.w3.org/2000/svg" xmlns:xlink="http://www.w3.org/1999/xlink" width="500" zoomAndPan="magnify" viewBox="0 0 375 374.999991" height="500" preserveAspectRatio="xMidYMid meet" version="1.0"><defs><clipPath id="f4a9c16b0a"><path d="M 0 200.871094 L 174 200.871094 L 174 374.871094 L 0 374.871094 Z M 0 200.871094 " clip-rule="nonzero"/></clipPath><clipPath id="98eda22323"><path d="M 200.871094 0 L 374.871094 0 L 374.871094 174 L 200.871094 174 Z M 200.871094 0 " clip-rule="nonzero"/></clipPath><clipPath id="9bc7a5673b"><path d="M 200.871094 200.871094 L 374.871094 200.871094 L 374.871094 374.871094 L 200.871094 374.871094 Z M 200.871094 200.871094 " clip-rule="nonzero"/></clipPath></defs><g clip-path="url(#f4a9c16b0a)"><path fill="#0f5809" d="M 174 355.539062 C 174 366.214844 165.34375 374.871094 154.667969 374.871094 L 19.332031 374.871094 C 8.65625 374.871094 0 366.214844 0 355.539062 L 0 220.203125 C 0 209.527344 8.65625 200.871094 19.332031 200.871094 L 154.667969 200.871094 C 165.34375 200.871094 174 209.527344 174 220.203125 Z M 174 355.539062 " fill-opacity="1" fill-rule="nonzero"/></g><g clip-path="url(#98eda22323)"><path fill="#008037" d="M 374.871094 154.667969 C 374.871094 165.34375 366.214844 174 355.539062 174 L 220.203125 174 C 209.527344 174 200.871094 165.34375 200.871094 154.667969 L 200.871094 19.332031 C 200.871094 8.65625 209.527344 0 220.203125 0 L 355.539062 0 C 366.214844 0 374.871094 8.65625 374.871094 19.332031 Z M 374.871094 154.667969 " fill-opacity="1" fill-rule="nonzero"/></g><g clip-path="url(#9bc7a5673b)"><path fill="#67b931" d="M 374.871094 355.539062 C 374.871094 366.214844 366.214844 374.871094 355.539062 374.871094 L 220.203125 374.871094 C 209.527344 374.871094 200.871094 366.214844 200.871094 355.539062 L 200.871094 220.203125 C 200.871094 209.527344 209.527344 200.871094 220.203125 200.871094 L 355.539062 200.871094 C 366.214844 200.871094 374.871094 209.527344 374.871094 220.203125 Z M 374.871094 355.539062 " fill-opacity="1" fill-rule="nonzero"/></g><path fill="#9fe470" d="M 174 154.667969 C 174 165.34375 165.34375 174 154.667969 174 L 19.332031 174 C 8.65625 174 0 165.34375 0 154.667969 L 0 19.332031 C 0 8.65625 8.65625 0 19.332031 0 L 154.667969 0 C 165.34375 0 174 8.65625 174 19.332031 Z M 174 154.667969 " fill-opacity="1" fill-rule="nonzero"/></svg>